<svg xmlns="http://www.w3.org/2000/svg" x="0px" y="0px" width="100" height="100" viewBox="0 0 100 100"
style="fill:#FFFFFF;">
<path d="M 37.130859 11.005859 C 36.55299 10.97978 35.961604 11.118683 35.433594 11.441406 C 34.026351 12.304643 33.581255 14.159059 34.443359 15.566406 L 36.445312 18.833984 C 31.327322 22.109598 28 27.197754 28 33 A 1.0001 1.0001 0 0 0 29 34 L 71 34 A 1.0001 1.0001 0 0 0 72 33 C 72 27.197754 68.672678 22.109598 63.554688 18.833984 L 65.556641 15.568359 C 66.418518 14.160188 65.973966 12.305594 64.566406 11.443359 L 64.566406 11.441406 C 63.86295 11.012233 63.048135 10.908954 62.300781 11.087891 C 61.553427 11.266828 60.873123 11.727858 60.441406 12.431641 L 60.441406 12.433594 L 58.087891 16.271484 C 55.575487 15.458456 52.849274 15 50 15 C 47.150726 15 44.424513 15.458456 41.912109 16.271484 L 39.558594 12.431641 C 39.127443 11.727807 38.44866 11.265164 37.701172 11.085938 C 37.5143 11.041131 37.323482 11.014553 37.130859 11.005859 z M 37.089844 12 C 37.217827 12.005429 37.344716 12.023016 37.46875 12.052734 C 37.965512 12.171758 38.417182 12.481912 38.707031 12.955078 L 40.947266 16.609375 C 39.661108 17.085042 38.441038 17.655209 37.298828 18.316406 L 35.296875 15.044922 C 34.71698 14.098269 35.010274 12.875686 35.957031 12.294922 C 36.312203 12.078329 36.705895 11.983713 37.089844 12 z M 62.912109 12.001953 C 63.296169 11.985106 63.689764 12.078266 64.044922 12.294922 C 64.991363 12.874687 65.285201 14.099046 64.705078 15.046875 L 62.701172 18.316406 C 61.559978 17.655797 60.34154 17.084793 59.056641 16.609375 L 61.294922 12.955078 C 61.585205 12.481861 62.036307 12.173499 62.533203 12.054688 C 62.657427 12.024984 62.784089 12.007569 62.912109 12.001953 z M 50 17 C 60.723332 17 69.217264 23.737437 69.873047 32 L 30.126953 32 C 30.782736 23.737437 39.276668 17 50 17 z M 41.5 24 C 40.708334 24 40.051923 24.314878 39.626953 24.792969 C 39.201984 25.27106 39 25.888889 39 26.5 C 39 27.111111 39.201984 27.72894 39.626953 28.207031 C 40.051923 28.685122 40.708334 29 41.5 29 C 42.291666 29 42.948077 28.685122 43.373047 28.207031 C 43.798016 27.72894 44 27.111111 44 26.5 C 44 25.888889 43.798016 25.27106 43.373047 24.792969 C 42.948077 24.314878 42.291666 24 41.5 24 z M 58.5 24 C 57.708334 24 57.051923 24.314878 56.626953 24.792969 C 56.201984 25.27106 56 25.888889 56 26.5 C 56 27.111111 56.201984 27.72894 56.626953 28.207031 C 57.051923 28.685122 57.708334 29 58.5 29 C 59.291666 29 59.948077 28.685122 60.373047 28.207031 C 60.798016 27.72894 61 27.111111 61 26.5 C 61 25.888889 60.798016 25.27106 60.373047 24.792969 C 59.948077 24.314878 59.291666 24 58.5 24 z M 41.5 25 C 42.041666 25 42.385256 25.185122 42.626953 25.457031 C 42.86865 25.72894 43 26.111111 43 26.5 C 43 26.888889 42.86865 27.27106 42.626953 27.542969 C 42.385256 27.814878 42.041666 28 41.5 28 C 40.958334 28 40.614744 27.814878 40.373047 27.542969 C 40.13135 27.27106 40 26.888889 40 26.5 C 40 26.111111 40.13135 25.72894 40.373047 25.457031 C 40.614744 25.185122 40.958334 25 41.5 25 z M 58.5 25 C 59.041666 25 59.385256 25.185122 59.626953 25.457031 C 59.86865 25.72894 60 26.111111 60 26.5 C 60 26.888889 59.86865 27.27106 59.626953 27.542969 C 59.385256 27.814878 59.041666 28 58.5 28 C 57.958334 28 57.614744 27.814878 57.373047 27.542969 C 57.13135 27.27106 57 26.888889 57 26.5 C 57 26.111111 57.13135 25.72894 57.373047 25.457031 C 57.614744 25.185122 57.958334 25 58.5 25 z M 20 37 C 17.250484 37 15 39.250484 15 42 L 15 61 C 15 63.749516 17.250484 66 20 66 C 22.749516 66 25 63.749516 25 61 L 25 42 C 25 39.250484 22.749516 37 20 37 z M 29 37 A 1.0001 1.0001 0 0 0 28 38 L 28 69 C 28 72.301625 30.698375 75 34 75 L 36 75 L 36 84 C 36 86.749516 38.250484 89 41 89 C 43.749516 89 46 86.749516 46 84 L 46 75 L 54 75 L 54 84 C 54 86.749516 56.250484 89 59 89 C 61.749516 89 64 86.749516 64 84 L 64 75 L 66 75 C 69.301625 75 72 72.301625 72 69 L 72 38 A 1.0001 1.0001 0 0 0 71 37 L 29 37 z M 80 37 C 77.250484 37 75 39.250484 75 42 L 75 61 C 75 63.749516 77.250484 66 80 66 C 82.749516 66 85 63.749516 85 61 L 85 42 C 85 39.250484 82.749516 37 80 37 z M 20 39 C 21.668484 39 23 40.331516 23 42 L 23 61 C 23 62.668484 21.668484 64 20 64 C 18.331516 64 17 62.668484 17 61 L 17 42 C 17 40.331516 18.331516 39 20 39 z M 30 39 L 70 39 L 70 69 C 70 71.220375 68.220375 73 66 73 L 63.167969 73 A 1.0001 1.0001 0 0 0 62.841797 73 L 55.154297 73 A 1.0001 1.0001 0 0 0 54.984375 72.986328 A 1.0001 1.0001 0 0 0 54.839844 73 L 45.167969 73 A 1.0001 1.0001 0 0 0 44.841797 73 L 37.154297 73 A 1.0001 1.0001 0 0 0 36.984375 72.986328 A 1.0001 1.0001 0 0 0 36.839844 73 L 34 73 C 31.779625 73 30 71.220375 30 69 L 30 39 z M 80 39 C 81.668484 39 83 40.331516 83 42 L 83 61 C 83 62.668484 81.668484 64 80 64 C 78.331516 64 77 62.668484 77 61 L 77 42 C 77 40.331516 78.331516 39 80 39 z M 33.492188 41.992188 A 0.50005 0.50005 0 0 0 33 42.5 L 33 64.5 C 33 67.531313 35.468687 70 38.5 70 L 56.5 70 A 0.50005 0.50005 0 1 0 56.5 69 L 38.5 69 C 36.009313 69 34 66.990687 34 64.5 L 34 42.5 A 0.50005 0.50005 0 0 0 33.492188 41.992188 z M 58.5 69 A 0.50005 0.50005 0 1 0 58.5 70 L 63.5 70 A 0.50005 0.50005 0 1 0 63.5 69 L 58.5 69 z M 65.5 69 A 0.50005 0.50005 0 1 0 65.5 70 L 66.5 70 A 0.50005 0.50005 0 1 0 66.5 69 L 65.5 69 z M 38 75 L 44 75 L 44 84 C 44 85.668484 42.668484 87 41 87 C 39.331516 87 38 85.668484 38 84 L 38 75 z M 56 75 L 62 75 L 62 84 C 62 85.668484 60.668484 87 59 87 C 57.331516 87 56 85.668484 56 84 L 56 75 z"></path>
</svg>