<svg xmlns="http://www.w3.org/2000/svg" x="0px" y="0px" width="50" height="50" viewBox="0,0,256,256"
style="fill:#000000;">
<g fill="#ffffff" fill-rule="nonzero" stroke="none" stroke-width="1" stroke-linecap="butt" stroke-linejoin="miter" stroke-miterlimit="10" stroke-dasharray="" stroke-dashoffset="0" font-family="none" font-weight="none" font-size="none" text-anchor="none" style="mix-blend-mode: normal"><g transform="scale(2.56,2.56)"><path d="M53.28711,11.86914c-10.77411,0.004 -21.58432,0.38569 -32.42578,1.13476c-1.05456,0.07336 -1.86996,0.95464 -1.86133,2.01172c0.16977,22.60398 2.04706,42.09997 4.42773,60.61914c0.08016,0.62389 0.44913,1.17373 0.99609,1.48438c9.09009,5.1568 18.38693,9.08769 28.00586,10.84766c0.3252,0.05938 0.66006,0.03724 0.97461,-0.06445c7.945,-2.5666 16.44093,-5.58011 25.62695,-9.15234c0.66165,-0.25727 1.13736,-0.84596 1.25,-1.54687c3.05649,-19.05972 5.5268,-38.78759 7.07617,-62.07031c0.07253,-1.09817 -0.75574,-2.04864 -1.85352,-2.12695c-10.70363,-0.76548 -21.44269,-1.14073 -32.2168,-1.13672zM53.28711,15.86914c0.59359,-0.00022 1.18595,0.01331 1.7793,0.01563l1.00586,2.49023c0.13392,0.33153 0.43456,0.56642 0.78864,0.61615c0.35408,0.04973 0.7078,-0.09324 0.92786,-0.37505c0.22007,-0.28181 0.27304,-0.65963 0.13897,-0.9911l-0.69531,-1.72266c1.09498,0.00992 2.19098,0.01095 3.28516,0.0293l2.77539,2.77539c0.25082,0.26124 0.62327,0.36648 0.97371,0.27512c0.35044,-0.09136 0.62411,-0.36503 0.71547,-0.71547c0.09136,-0.35044 -0.01388,-0.72289 -0.27512,-0.97371l-1.29102,-1.29102c6.60211,0.15507 13.19139,0.44544 19.76563,0.88477c-0.1058,1.51919 -0.22446,2.99001 -0.33789,4.48047l-2.44336,1.83203c-0.44226,0.33115 -0.53233,0.95813 -0.20117,1.40039c0.33115,0.44226 0.95813,0.53233 1.40039,0.20117l1.04297,-0.7832c-0.08595,1.07494 -0.17574,2.13052 -0.26562,3.19141l-4.08398,4.08398c-0.26124,0.25082 -0.36648,0.62327 -0.27512,0.97371c0.09136,0.35044 0.36503,0.62411 0.71547,0.71547c0.35044,0.09136 0.72289,-0.01388 0.97371,-0.27512l2.40039,-2.40039c-1.44104,16.11596 -3.33042,30.70072 -5.56836,44.81836l-1.83203,-1.83203c-0.18827,-0.19353 -0.4468,-0.30272 -0.7168,-0.30273c-0.40692,0.00011 -0.77321,0.24676 -0.92633,0.62377c-0.15312,0.37701 -0.06255,0.80921 0.22907,1.09303l1.39063,1.39063c-2.96377,1.13276 -5.85777,2.21001 -8.68359,3.23242v-1.33008c0.0037,-0.2703 -0.10218,-0.53059 -0.29351,-0.72155c-0.19133,-0.19097 -0.45182,-0.29634 -0.72212,-0.29212c-0.55152,0.00862 -0.99193,0.46214 -0.98437,1.01367v2.05664c-1.01671,0.36271 -2.00125,0.70055 -3,1.04883v-1.10547c0.0037,-0.2703 -0.10218,-0.53059 -0.29351,-0.72155c-0.19133,-0.19097 -0.45182,-0.29634 -0.72212,-0.29212c-0.55152,0.00862 -0.99193,0.46214 -0.98437,1.01367v1.80273c-2.1463,0.73663 -4.2616,1.44812 -6.32422,2.11719c-0.00525,-0.001 -0.01037,-0.0029 -0.01562,-0.00391l0.23438,-0.46875c0.16492,-0.3182 0.14697,-0.70032 -0.04706,-1.00165c-0.19403,-0.30133 -0.53447,-0.4758 -0.89239,-0.45733c-0.36508,0.01873 -0.69085,0.23517 -0.84961,0.56445l-0.46289,0.92383c-0.79146,-0.17861 -1.58159,-0.37291 -2.37109,-0.58203l1.56055,-2.33984c0.21326,-0.31011 0.23436,-0.7137 0.0546,-1.04436c-0.17976,-0.33066 -0.52994,-0.5324 -0.90616,-0.52205c-0.32962,0.00908 -0.63357,0.18006 -0.8125,0.45703l-1.92969,2.89648c-1.43415,-0.42671 -2.86454,-0.91803 -4.29297,-1.4375l1.60938,-1.07227c0.37753,-0.2437 0.54617,-0.70926 0.4123,-1.13821c-0.13387,-0.42894 -0.5374,-0.71594 -0.98652,-0.70163c-0.19154,0.00611 -0.3773,0.06712 -0.53516,0.17578l-2.80469,1.87109c-0.36301,-0.14428 -0.7252,-0.30333 -1.08789,-0.45312l1.04688,-0.78516c0.34831,-0.25354 0.49512,-0.70165 0.36434,-1.11214c-0.13077,-0.41049 -0.50973,-0.69111 -0.94051,-0.69645c-0.22506,-0.00307 -0.44458,0.06988 -0.62305,0.20703l-1.98047,1.48438c-0.9382,-0.41531 -1.87623,-0.84149 -2.8125,-1.29102l1.22461,-1.83789c0.21326,-0.31011 0.23436,-0.7137 0.0546,-1.04436c-0.17976,-0.33066 -0.52994,-0.5324 -0.90616,-0.52205c-0.32962,0.00908 -0.63357,0.18006 -0.8125,0.45703l-1.36328,2.04492c-0.48185,-0.24244 -0.96391,-0.47575 -1.44531,-0.72656l1.47266,-2.20898c0.21326,-0.31011 0.23436,-0.7137 0.0546,-1.04436c-0.17976,-0.33066 -0.52994,-0.5324 -0.90616,-0.52205c-0.32962,0.00908 -0.63357,0.18006 -0.8125,0.45703l-1.57812,2.36719c-0.43435,-0.23549 -0.86871,-0.46127 -1.30273,-0.70312c-0.32954,-2.58822 -0.64436,-5.2027 -0.94922,-7.83398l0.97852,-0.32617c0.46467,-0.14697 0.75573,-0.60748 0.68911,-1.09026c-0.06662,-0.48278 -0.47154,-0.84724 -0.95864,-0.86287c-0.12343,-0.00436 -0.2466,0.01418 -0.36328,0.05469l-0.57227,0.19141c-0.10449,-0.92869 -0.21178,-1.85174 -0.3125,-2.78711l1.51758,-0.50586c0.46467,-0.14697 0.75573,-0.60748 0.68911,-1.09026c-0.06662,-0.48278 -0.47154,-0.84724 -0.95864,-0.86287c-0.12343,-0.00436 -0.2466,0.01418 -0.36328,0.05469l-1.09766,0.36523c-0.16483,-1.58471 -0.326,-3.17652 -0.47852,-4.7832l4.26367,-1.70508c0.45451,-0.17429 0.71752,-0.65051 0.62298,-1.12803c-0.09454,-0.47751 -0.51916,-0.8176 -1.00579,-0.80556c-0.12359,0.0036 -0.24544,0.03009 -0.35937,0.07813l-3.71289,1.48438c-0.29464,-3.24427 -0.55611,-6.54849 -0.79102,-9.90039l2.47461,-1.85547c0.34831,-0.25354 0.49512,-0.70165 0.36434,-1.11214c-0.13077,-0.41049 -0.50973,-0.69111 -0.94051,-0.69645c-0.22506,-0.00307 -0.44458,0.06988 -0.62305,0.20703l-1.44336,1.08398c-0.05331,-0.82199 -0.09919,-1.65891 -0.14844,-2.48828l4.83203,-4.02734c0.3337,-0.27132 0.45657,-0.72561 0.30512,-1.12815c-0.15145,-0.40254 -0.5433,-0.66317 -0.97309,-0.64724c-0.22569,0.00853 -0.44184,0.09321 -0.61328,0.24023l-3.68945,3.07422c-0.13015,-2.41797 -0.23956,-4.8709 -0.33203,-7.35742l2.10938,-1.05469c0.42109,-0.20367 0.64476,-0.67201 0.53849,-1.12754c-0.10627,-0.45553 -0.5141,-0.77654 -0.98185,-0.77285c-0.15705,0.00117 -0.31161,0.03931 -0.45117,0.11133l-1.30078,0.65039c-0.09346,-2.90578 -0.16506,-5.84885 -0.20117,-8.85937c2.5732,-0.16751 5.14365,-0.31491 7.71289,-0.44336l0.28711,0.86328c0.11298,0.3392 0.39837,0.59234 0.74862,0.66405c0.35026,0.0717 0.71216,-0.04893 0.94934,-0.31645c0.23718,-0.26752 0.31361,-0.64126 0.20047,-0.98041l-0.10547,-0.31836c1.16883,-0.05348 2.33787,-0.10547 3.50586,-0.15039l0.70117,2.10156c0.11298,0.3392 0.39837,0.59234 0.74862,0.66405c0.35026,0.0717 0.71216,-0.04893 0.94934,-0.31645c0.23718,-0.26752 0.31361,-0.64126 0.20047,-0.98041l-0.51758,-1.55273c0.97801,-0.03329 1.95423,-0.04912 2.93164,-0.07617l0.6543,3.54492c0.04886,0.36577 0.29516,0.67492 0.64077,0.80425c0.34561,0.12934 0.73436,0.05785 1.01135,-0.18598c0.27699,-0.24383 0.39719,-0.62038 0.31273,-0.9796l-0.59766,-3.23633c3.30393,-0.07669 6.60555,-0.13158 9.90234,-0.13281zM36.28906,26.19922c-0.55226,0.00006 -0.99994,0.44774 -1,1v22.31445c0.00006,0.55226 0.44774,0.99994 1,1h24.11719v8.14258h-15.86133v-3.05664c-0.00006,-0.55226 -0.44774,-0.99994 -1,-1h-7.25586c-0.55226,0.00006 -0.99994,0.44774 -1,1v10.14258c-0.00045,0.44209 0.28942,0.83202 0.71289,0.95898c0,0 5.6899,1.70675 12.61133,2.30273c6.92143,0.59598 15.19137,0.16896 20.37305,-4.55078c0.20073,-0.18287 0.31847,-0.4395 0.32617,-0.71094c0.37484,-13.35685 -0.00195,-21.35938 -0.00195,-21.35938c-0.02507,-0.53312 -0.46434,-0.95262 -0.99805,-0.95312l-23.76758,-0.0293v-5.08594h15.86133v1.0293c0.00006,0.55226 0.44774,0.99994 1,1h6.90625c0.55226,-0.00006 0.99994,-0.44774 1,-1v-10.14453c-0.00006,-0.55226 -0.44774,-0.99994 -1,-1zM37.28906,28.19922h30.02344v8.14453h-4.90625v-1.0293c-0.00006,-0.55226 -0.44774,-0.99994 -1,-1h-17.86133c-0.55226,0.00006 -0.99994,0.44774 -1,1v7.08594c0.00005,0.5515 0.44655,0.99887 0.99805,1l23.79297,0.02734c0.04949,1.18825 0.29429,7.95293 -0.01953,19.74805c-4.46194,3.80301 -11.98106,4.39995 -18.53125,3.83594c-6.02643,-0.51892 -10.54869,-1.7781 -11.49609,-2.04883v-8.36328h5.25586v3.05664c0.00006,0.55226 0.44774,0.99994 1,1h17.86133c0.55226,-0.00006 0.99994,-0.44774 1,-1v-10.14258c-0.00006,-0.55226 -0.44774,-0.99994 -1,-1h-24.11719zM74.23242,30.22461c-0.552,-0.029 -1.02183,0.39527 -1.04883,0.94727c-0.029,0.552 0.39722,1.01983 0.94922,1.04883c0.552,0.029 1.02183,-0.39727 1.04883,-0.94727c0.027,-0.551 -0.39822,-1.02083 -0.94922,-1.04883zM31.87695,43.17969c-0.552,-0.029 -1.02278,0.39722 -1.05078,0.94922c-0.028,0.552 0.39722,1.01983 0.94922,1.04883c0.551,0.029 1.02083,-0.39922 1.04883,-0.94922c0.027,-0.551 -0.39727,-1.02083 -0.94727,-1.04883zM73.59766,56.2207c-0.552,-0.029 -1.02278,0.39722 -1.05078,0.94922c-0.028,0.552 0.39722,1.01983 0.94922,1.04883c0.551,0.029 1.02083,-0.39922 1.04883,-0.94922c0.027,-0.551 -0.39727,-1.02083 -0.94727,-1.04883z"></path></g></g>
</svg>